<!DOCTYPE svg PUBLIC "-//W3C//DTD SVG 1.1//EN" "http://www.w3.org/Graphics/SVG/1.1/DTD/svg11.dtd">
<!-- Uploaded to: SVG Repo, www.svgrepo.com, Transformed by: SVG Repo Mixer Tools -->
<svg fill="#ffffff" height="800px" width="800px" version="1.1" id="Layer_1" xmlns="http://www.w3.org/2000/svg" xmlns:xlink="http://www.w3.org/1999/xlink" viewBox="0 0 480 480" xml:space="preserve">
<g id="SVGRepo_bgCarrier" stroke-width="0"/>
<g id="SVGRepo_tracerCarrier" stroke-linecap="round" stroke-linejoin="round"/>
<g id="SVGRepo_iconCarrier"> <g> <g> <g> <path d="M472,232H320c-2.376,0-4.624,1.056-6.152,2.88l-37.6,45.12H272v-72v-96c0-4.416-3.576-8-8-8H8c-4.416,0-8,3.584-8,8v96 v80v48v136c0,4.416,3.584,8,8,8h376h40c4.424,0,8-3.584,8-8c0-4.416-3.576-8-8-8h-21.816l75.712-82.592 C479.248,379.928,480,378,480,376v-40v-96C480,235.584,476.424,232,472,232z M16,120h240v80H16V120z M16,216h240v64h-16v-40 c0-4.416-3.584-8-8-8s-8,3.584-8,8v40h-16v-40c0-4.416-3.584-8-8-8s-8,3.584-8,8v40h-16v-40c0-4.416-3.584-8-8-8s-8,3.584-8,8v40 h-16v-40c0-4.416-3.584-8-8-8s-8,3.584-8,8v40h-16v-40c0-4.416-3.584-8-8-8s-8,3.584-8,8v40H80v-40c0-4.416-3.584-8-8-8 s-8,3.584-8,8v40H48v-40c0-4.416-3.584-8-8-8s-8,3.584-8,8v40H16V216z M464,372.888L380.488,464H16V344h448V372.888z M464,328H16 v-32h248h16c2.376,0,4.624-1.056,6.152-2.88l37.6-45.12H464V328z"/> <path d="M320,376h56c4.424,0,8-3.584,8-8c0-4.416-3.576-8-8-8h-56c-4.424,0-8,3.584-8,8C312,372.416,315.576,376,320,376z"/> <path d="M408,376h16c4.424,0,8-3.584,8-8c0-4.416-3.576-8-8-8h-16c-4.424,0-8,3.584-8,8C400,372.416,403.576,376,408,376z"/> <path d="M472,464h-16c-4.424,0-8,3.584-8,8c0,4.416,3.576,8,8,8h16c4.424,0,8-3.584,8-8C480,467.584,476.424,464,472,464z"/> <path d="M40,408h16c13.232,0,24-10.768,24-24v-16c0-4.416-3.584-8-8-8H56c-13.232,0-24,10.768-24,24v16 C32,404.416,35.584,408,40,408z M48,384c0-4.408,3.592-8,8-8h8v8c0,4.408-3.592,8-8,8h-8V384z"/> <path d="M104,408h16c13.232,0,24-10.768,24-24v-16c0-4.416-3.584-8-8-8h-16c-13.232,0-24,10.768-24,24v16 C96,404.416,99.584,408,104,408z M112,384c0-4.408,3.592-8,8-8h8v8c0,4.408-3.592,8-8,8h-8V384z"/> <path d="M168,408h16c13.232,0,24-10.768,24-24v-16c0-4.416-3.584-8-8-8h-16c-13.232,0-24,10.768-24,24v16 C160,404.416,163.584,408,168,408z M176,384c0-4.408,3.592-8,8-8h8v8c0,4.408-3.592,8-8,8h-8V384z"/> <path d="M232,408h16c13.232,0,24-10.768,24-24v-16c0-4.416-3.576-8-8-8h-16c-13.232,0-24,10.768-24,24v16 C224,404.416,227.584,408,232,408z M240,384c0-4.408,3.592-8,8-8h8v8c0,4.408-3.584,8-8,8h-8V384z"/> <path d="M416,128c35.288,0,64-28.712,64-64S451.288,0,416,0c-35.288,0-64,28.712-64,64S380.712,128,416,128z M416,16 c26.472,0,48,21.528,48,48s-21.528,48-48,48s-48-21.528-48-48S389.528,16,416,16z"/> <path d="M472,176h-17.016c-3.552-13.784-16.104-24-30.984-24s-27.432,10.216-30.984,24H360c-4.424,0-8,3.584-8,8s3.576,8,8,8h40 c4.424,0,8-3.584,8-8c0-8.824,7.176-16,16-16c8.824,0,16,7.176,16,16c0,4.416,3.576,8,8,8h24c4.424,0,8-3.584,8-8 S476.424,176,472,176z"/> <path d="M312,192h16c4.424,0,8-3.584,8-8s-3.576-8-8-8h-16c-4.424,0-8,3.584-8,8S307.576,192,312,192z"/> <path d="M184,64h40c4.416,0,8-3.584,8-8c0-8.824,7.176-16,16-16c8.824,0,16,7.176,16,16c0,4.416,3.576,8,8,8h24 c4.424,0,8-3.584,8-8s-3.576-8-8-8h-17.016C275.432,34.216,262.88,24,248,24s-27.424,10.216-30.992,24H184c-4.416,0-8,3.584-8,8 S179.584,64,184,64z"/> <path d="M136,64h16c4.416,0,8-3.584,8-8s-3.584-8-8-8h-16c-4.416,0-8,3.584-8,8S131.584,64,136,64z"/> <path d="M40,136c-4.416,0-8,3.584-8,8v32c0,4.416,3.584,8,8,8s8-3.584,8-8v-32C48,139.584,44.416,136,40,136z"/> <path d="M72,136c-4.416,0-8,3.584-8,8v32c0,4.416,3.584,8,8,8s8-3.584,8-8v-32C80,139.584,76.416,136,72,136z"/> <path d="M104,136c-4.416,0-8,3.584-8,8v32c0,4.416,3.584,8,8,8s8-3.584,8-8v-32C112,139.584,108.416,136,104,136z"/> <path d="M136,136c-4.416,0-8,3.584-8,8v32c0,4.416,3.584,8,8,8s8-3.584,8-8v-32C144,139.584,140.416,136,136,136z"/> <path d="M168,136c-4.416,0-8,3.584-8,8v32c0,4.416,3.584,8,8,8s8-3.584,8-8v-32C176,139.584,172.416,136,168,136z"/> <path d="M200,136c-4.416,0-8,3.584-8,8v32c0,4.416,3.584,8,8,8s8-3.584,8-8v-32C208,139.584,204.416,136,200,136z"/> <path d="M232,136c-4.416,0-8,3.584-8,8v32c0,4.416,3.584,8,8,8s8-3.584,8-8v-32C240,139.584,236.416,136,232,136z"/> </g> </g> </g> </g>
</svg>